{
  "extensionsUsed": [
    "KHR_materials_transmission",
    "KHR_materials_clearcoat",
    "KHR_materials_ior",
    "KHR_materials_specular",
    "KHR_materials_emissive_strength",
    "KHR_texture_transform"
  ],
  "accessors": [
    {
      "bufferView": 0,
      "componentType": 5126,
      "count": 10927,
      "type": "VEC3",
      "max": [
        0.968363,
        0.7775293,
        -0.42892316
      ],
      "min": [
        -0.95996886,
        -0.3635293,
        -0.63409185
      ]
    },
    {
      "bufferView": 1,
      "componentType": 5125,
      "count": 45072,
      "type": "SCALAR",
      "max": [
        10926.0
      ],
      "min": [
        0.0
      ]
    },
    {
      "bufferView": 2,
      "componentType": 5126,
      "count": 10927,
      "type": "VEC3",
      "max": [
        1.0,
        1.0,
        1.0
      ],
      "min": [
        -1.0,
        -1.0,
        -1.0
      ]
    },
    {
      "bufferView": 3,
      "componentType": 5126,
      "count": 10927,
      "type": "VEC2",
      "max": [
        0.9917232,
        0.99853516
      ],
      "min": [
        0.0,
        0.0
      ]
    }
  ],
  "asset": {
    "version": "2.0"
  },
  "buffers": [
    {
      "uri": "data:application/octet-stream;base64,",
      "byteLength": 131124
    },
    {
      "uri": "data:application/octet-stream;base64,",
      "byteLength": 180288
    },
    {
      "uri": "data:application/octet-stream;base64,",
      "byteLength": 131124
    },
    {
      "uri": "data:application/octet-stream;base64,",
      "byteLength": 87416
    }
  ],
  "bufferViews": [
    {
      "buffer": 0,
      "byteLength": 131124,
      "target": 34962
    },
    {
      "buffer": 1,
      "byteLength": 180288,
      "target": 34963
    },
    {
      "buffer": 2,
      "byteLength": 131124,
      "target": 34962
    },
    {
      "buffer": 3,
      "byteLength": 87416,
      "target": 34962
    }
  ],
  "materials": [
    {
      "name": "Color_-_Figma_Green",
      "extensions": {
        "KHR_materials_transmission": {},
        "KHR_materials_clearcoat": {},
        "KHR_materials_ior": {
          "ior": 1.52
        },
        "KHR_materials_specular": {
          "specularFactor": 1.0,
          "specularColorFactor": [
            1.0,
            1.0,
            1.0
          ]
        }
      },
      "pbrMetallicRoughness": {
        "baseColorFactor": [
          0.022614801,
          0.0241377,
          0.575301,
          1.0
        ],
        "metallicFactor": 0.0,
        "roughnessFactor": 0.9844193
      }
    }
  ],
  "meshes": [
    {
      "primitives": [
        {
          "attributes": {
            "POSITION": 0,
            "NORMAL": 2,
            "TEXCOORD_0": 3
          },
          "indices": 1,
          "material": 0
        }
      ]
    }
  ],
  "nodes": [
    {
      "mesh": 0
    }
  ],
  "samplers": [
    {
      "magFilter": 9729,
      "minFilter": 9729
    }
  ],
  "scene": 0,
  "scenes": [
    {
      "nodes": [
        0
      ],
      "extensions": {}
    }
  ],
  "extensions": {}
}